<svg width="32" height="32" viewBox="0 0 32 32" fill="none" xmlns="http://www.w3.org/2000/svg">
    <rect x=".5" y=".5" width="31" height="31" rx="15.5" fill="#3EC200"/>
    <rect x=".5" y=".5" width="31" height="31" rx="15.5" stroke="#339804"/>
    <path d="M9.5 16a4 4 0 1 1 0 8 4 4 0 0 1 0-8zm13 0a4 4 0 1 1 0 8 4 4 0 0 1 0-8zm-13 1.5a2.5 2.5 0 1 0 0 5 2.5 2.5 0 0 0 0-5zm13 0a2.5 2.5 0 1 0 0 5 2.5 2.5 0 0 0 0-5zm-6.753-7.658a1 1 0 0 1 1.411-.095c.127.112.243.28.331.473l1.922 3.03H21.5a.75.75 0 0 1 0 1.5H19a.75.75 0 0 1-.113-.01l-.025-.005a.75.75 0 0 1-.245-.091l-.016-.01a.748.748 0 0 1-.135-.11.748.748 0 0 1-.076-.088l-1.602-2.243-2.07 2.02 1.698 1.663a.752.752 0 0 1 .068.052l.017.015a.738.738 0 0 1 .12.137l.013.022a.747.747 0 0 1 .116.398V21a.75.75 0 0 1-1.5 0v-4.086L12.2 15a.448.448 0 0 1-.08-.068l-.025-.02A1 1 0 0 1 12 13.5l3.747-3.658zM19 7a1.5 1.5 0 1 1 0 3 1.5 1.5 0 0 1 0-3z" fill="#fff"/>
</svg>
