<svg width="48" height="48" viewBox="0 0 48 48" fill="none" xmlns="http://www.w3.org/2000/svg">
    <path d="M47 11.075v31.26c0 2.238-1.88 4.033-4.18 4.033H5.18C2.88 46.368 1 44.573 1 42.334V11.075h46z" fill="#66D966"/>
    <path d="M35.737 31.12H23.993c-1.154 0-2.09-.903-2.09-2.017v-8.962c0-1.113.936-2.016 2.09-2.016s2.09.902 2.09 2.016v6.946h9.654c1.155 0 2.09.902 2.09 2.016 0 1.114-.935 2.017-2.09 2.017z" fill="#fff"/>
    <path d="M23.998 33.137c-2.305 0-4.18-1.81-4.18-4.034 0-2.224 1.875-4.033 4.18-4.033 2.306 0 4.18 1.809 4.18 4.033 0 2.225-1.874 4.034-4.18 4.034z" fill="#fff"/>
    <path d="M47 6.033v5.042H1V6.033C1 3.795 2.88 2 5.18 2h37.64C45.12 2 47 3.795 47 6.033z" fill="#2BB92B"/>
</svg>
