<svg width="18" height="18" viewBox="0 0 18 18" fill="none" xmlns="http://www.w3.org/2000/svg">
    <path d="M6.793 3.793a1 1 0 1 1 1.414 1.414L5.414 8H15.5a1 1 0 1 1 0 2H5.414l2.793 2.793a1 1 0 0 1-1.414 1.414l-4.5-4.5a1.012 1.012 0 0 1-.089-.103c-.006-.008-.01-.016-.017-.024a.991.991 0 0 1-.16-.805l.006-.03a.993.993 0 0 1 .105-.25l.012-.022a.997.997 0 0 1 .075-.104c.009-.012.02-.022.029-.033l.039-.043 4.5-4.5z" fill="#2962FF"/>
    <path d="M6.793 3.793a1 1 0 1 1 1.414 1.414L5.414 8H15.5a1 1 0 1 1 0 2H5.414l2.793 2.793a1 1 0 0 1-1.414 1.414l-4.5-4.5a1.012 1.012 0 0 1-.089-.103c-.006-.008-.01-.016-.017-.024a.991.991 0 0 1-.16-.805l.006-.03a.993.993 0 0 1 .105-.25l.012-.022a.997.997 0 0 1 .075-.104c.009-.012.02-.022.029-.033l.039-.043 4.5-4.5z" fill="#2962FF"/>
    <path d="M6.793 3.793a1 1 0 1 1 1.414 1.414L5.414 8H15.5a1 1 0 1 1 0 2H5.414l2.793 2.793a1 1 0 0 1-1.414 1.414l-4.5-4.5a1.012 1.012 0 0 1-.089-.103c-.006-.008-.01-.016-.017-.024a.991.991 0 0 1-.16-.805l.006-.03a.993.993 0 0 1 .105-.25l.012-.022a.997.997 0 0 1 .075-.104c.009-.012.02-.022.029-.033l.039-.043 4.5-4.5z" fill="#2962FF"/>
</svg>
