<svg width="32" height="32" viewBox="0 0 32 32" fill="none" xmlns="http://www.w3.org/2000/svg">
    <rect x=".5" y=".5" width="31" height="31" rx="15.5" fill="#3EC200"/>
    <rect x=".5" y=".5" width="31" height="31" rx="15.5" stroke="#339804"/>
    <path d="M15.143 7.528a1 1 0 0 1 1.714 0l8.975 14.958a1 1 0 0 1-.715 1.505l-.142.01H7.026l-.142-.01a1 1 0 0 1-.715-1.505l8.974-14.958zM7.909 22.5h16.183L16 9.013 7.91 22.5z" fill="#fff"/>
    <path d="M16 19.755a.738.738 0 1 0 0 1.477.738.738 0 0 0 0-1.477zM16 12c-.611 0-1.107.496-1.107 1.107l.369 4.801c0 .612.217 1.108.738 1.109.521 0 .74-.497.74-1.109l.368-4.8c0-.612-.496-1.108-1.108-1.108z" fill="#fff"/>
</svg>
