<svg width="32" height="32" viewBox="0 0 32 32" fill="none" xmlns="http://www.w3.org/2000/svg">
    <rect x=".5" y=".5" width="31" height="31" rx="15.5" fill="#3EC200"/>
    <rect x=".5" y=".5" width="31" height="31" rx="15.5" stroke="#339804"/>
    <path d="M16.087 10.111a.913.913 0 0 1 .665.364l2.667 3.556 2.195 1.755a.914.914 0 0 1-1.141 1.427l-2.283-1.826a.915.915 0 0 1-.16-.166l-.753-1.004-.249 2.975 1.277 4.785 1.114 3.818a.913.913 0 0 1-1.732.577l-1.123-3.846c-.006-.016-.012-.032-.016-.049l-.983-2.325-.294 2.115a.916.916 0 0 1-.064.208l-2.003 3.982a.913.913 0 0 1-1.669-.741l1.748-3.739.464-2.593a.544.544 0 0 1-.008-.145l.31-4.955-.819.82-.413 2.895a.914.914 0 0 1-1.808-.259l.457-3.196.033-.143a.915.915 0 0 1 .226-.373l3.651-3.652.073-.066a.915.915 0 0 1 .638-.199zM16.342 6a1.69 1.69 0 1 1-.002 3.378A1.69 1.69 0 0 1 16.342 6z" fill="#fff"/>
</svg>
