<svg width="48" height="48" viewBox="0 0 48 48" fill="none" xmlns="http://www.w3.org/2000/svg">
    <g clip-path="url(#p6s5zkh7ja)">
        <path d="M47.004 4.344v28.215a4.258 4.258 0 0 1-4.258 4.26H4.458a4.271 4.271 0 0 1-4.26-4.26V4.344A4.271 4.271 0 0 1 4.459.085h38.288a4.258 4.258 0 0 1 4.258 4.259z" fill="#F64242"/>
        <path d="m29.396 36.817 2.13 9.054H15.68l2.13-9.054h11.585z" fill="#494949"/>
        <path d="M34.239 48h-21.27a2.13 2.13 0 0 1 0-4.259h21.27a2.13 2.13 0 0 1 0 4.26zM47.1 29v3.699c0 2.365-1.904 4.301-4.277 4.301H4.376C2.024 37 .099 35.065.099 32.699V29h47z" fill="#7D7D7D"/>
        <rect x="18.828" y="8.222" width="18" height="4" rx="2" transform="rotate(45 18.828 8.222)" fill="#fff"/>
        <rect x="16" y="20.95" width="18" height="4" rx="2" transform="rotate(-45 16 20.95)" fill="#fff"/>
    </g>
    <defs>
        <clipPath id="p6s5zkh7ja">
            <path fill="#fff" d="M0 0h48v48H0z"/>
        </clipPath>
    </defs>
</svg>
