<svg width="48" height="48" viewBox="0 0 48 48" fill="none" xmlns="http://www.w3.org/2000/svg">
    <g clip-path="url(#o24a3okyya)">
        <path d="M10.909 24c0-7.22 5.872-13.091 13.09-13.091L24 0C10.745 0 0 10.745 0 24h10.909z" fill="#F66"/>
        <path d="M10.909 24c0 7.218 5.872 13.09 13.09 13.09 3.432 0 6.559-1.326 8.895-3.493l7.817 7.629A23.921 23.921 0 0 1 24 48C10.745 48 0 37.255 0 24h10.909z" fill="#FFD966"/>
        <path d="M32.894 33.597a13.058 13.058 0 0 0 4.197-9.598c0-7.218-5.873-13.09-13.091-13.09V0c13.255 0 24 10.745 24 24a23.928 23.928 0 0 1-7.288 17.226l-7.818-7.63z" fill="#66B3FF"/>
    </g>
    <defs>
        <clipPath id="o24a3okyya">
            <path fill="#fff" d="M0 0h48v48H0z"/>
        </clipPath>
    </defs>
</svg>
