<svg width="32" height="32" viewBox="0 0 32 32" fill="none" xmlns="http://www.w3.org/2000/svg">
    <rect x=".5" y=".5" width="31" height="31" rx="15.5" fill="#E50000"/>
    <rect x=".5" y=".5" width="31" height="31" rx="15.5" stroke="#A00000"/>
    <path d="M11.4 19.55a.75.75 0 0 1 1.2.9l-3 4a.75.75 0 0 1-1.2-.9l3-4zm5 0a.75.75 0 0 1 1.2.9l-3 4a.75.75 0 0 1-1.2-.9l3-4zm5 0a.75.75 0 0 1 1.2.9l-3 4a.75.75 0 0 1-1.2-.9l3-4zM16.5 6a5 5 0 0 1 4.903 4.023A3.5 3.5 0 0 1 21 17H11a3.5 3.5 0 0 1 0-7h.6c.464-2.282 2.481-4 4.9-4zm0 1.5a3.502 3.502 0 0 0-3.43 2.799l-.243 1.201H11a2 2 0 0 0 0 4h10a2 2 0 0 0 .232-3.986l-1.088-.125-.213-1.074A3.5 3.5 0 0 0 16.5 7.5z" fill="#fff"/>
</svg>
