<svg width="24" height="24" viewBox="0 0 24 24" fill="none" xmlns="http://www.w3.org/2000/svg">
    <path d="M11.706 12a1.5 1.5 0 1 1 0 3 1.5 1.5 0 0 1 0-3zm-.003-3c1.045 0 2.058.363 2.865 1.028a.75.75 0 0 1-.954 1.157 3 3 0 0 0-3.82.003.75.75 0 0 1-.955-1.156A4.501 4.501 0 0 1 11.703 9zm.004-3a7.5 7.5 0 0 1 5.01 1.92.75.75 0 0 1-1.001 1.117 6.001 6.001 0 0 0-8.02-.001.75.75 0 0 1-1.001-1.117A7.5 7.5 0 0 1 11.707 6zm.394-2.992a10.5 10.5 0 0 1 7.03 3.068.75.75 0 0 1-1.061 1.06 9 9 0 0 0-12.231-.46.75.75 0 1 1-.978-1.138 10.5 10.5 0 0 1 7.24-2.53z" fill="#fff"/>
    <rect x="3" y="17" width="18" height="4" rx="1.5" fill="#fff"/>
</svg>
