<svg width="24" height="24" viewBox="0 0 24 24" fill="none" xmlns="http://www.w3.org/2000/svg">
    <path d="M11.703 9c1.045 0 2.059.363 2.865 1.027a.75.75 0 0 1-.954 1.158 3 3 0 0 0-3.82.003.75.75 0 0 1-.955-1.157 4.502 4.502 0 0 1 2.864-1.03zm.004-3c1.85 0 3.634.684 5.01 1.92a.751.751 0 0 1-1.001 1.116 6.002 6.002 0 0 0-8.019 0 .75.75 0 0 1-1.002-1.117A7.501 7.501 0 0 1 11.707 6zm.394-2.992a10.5 10.5 0 0 1 7.03 3.067.75.75 0 0 1-1.06 1.06 9.001 9.001 0 0 0-12.232-.46.75.75 0 1 1-.978-1.138 10.5 10.5 0 0 1 7.24-2.529z" fill="#fff"/>
    <circle cx="16.5" cy="20.5" r="1.5" fill="#fff"/>
    <circle cx="5.5" cy="20.5" r="1.5" fill="#fff"/>
    <path d="M14.777 14A6.222 6.222 0 0 1 21 20.167l-.001.018.001.038c0 .429-.348.777-.777.777H18.95a2.5 2.5 0 1 0-4.9 0h-6.1a2.5 2.5 0 1 0-4.9 0h-.217A.833.833 0 0 1 2 20.167 4.167 4.167 0 0 1 6.167 16h2.392c.791-1.22 2.16-2 3.675-2h2.543z" fill="#fff"/>
</svg>
